<?xml version="1.0" encoding="utf-8"?>
<!-- Svg Vector Icons : http://www.onlinewebfonts.com/icon -->
<!DOCTYPE svg PUBLIC "-//W3C//DTD SVG 1.1//EN" "http://www.w3.org/Graphics/SVG/1.1/DTD/svg11.dtd">
<svg version="1.1" xmlns="http://www.w3.org/2000/svg" xmlns:xlink="http://www.w3.org/1999/xlink" x="0px" y="0px" viewBox="0 0 1000 1000" enable-background="new 0 0 1000 1000" xml:space="preserve">
<metadata> Svg Vector Icons : http://www.onlinewebfonts.com/icon </metadata>
<g><g transform="translate(0.000000,511.000000) scale(0.100000,-0.100000)"><path d="M1452.3,4982.4c-96.8-42.5-195.9-162.8-212.4-257.2c-7.1-42.5-9.4-2147.5-7.1-4682.1l7.1-4606.6l49.6-63.7c26-35.4,77.9-87.3,113.3-113.3c63.7-49.5,66.1-49.5,3601.2-49.5c3535.1,0,3537.5,0,3601.2,49.5c35.4,26,87.3,77.9,113.3,113.3l49.6,63.7V106.8v4670.3l-49.6,63.7c-26,35.4-77.9,87.3-113.3,113.3c-63.7,49.6-70.8,49.6-3572.9,54.3C2150.8,5013.1,1511.3,5008.4,1452.3,4982.4z M8024.7,106.8v-4153.5H5004H1983.3V106.8v4153.5H5004h3020.7V106.8z"/><path d="M4850.6,3849.7c-87.3-40.1-165.2-122.7-198.2-210c-14.2-37.8-26-179.4-26-318.6v-252.5l-151-77.9c-179.4-92.1-382.3-297.4-472-472c-224.2-441.3-153.4-941.6,181.7-1298c205.3-214.8,436.6-323.3,764.6-356.4c212.4-21.2,278.5-54.3,370.5-177c37.7-47.2,49.5-99.1,49.5-203c0-148.7-37.7-224.2-162.8-316.2c-59-44.8-106.2-49.6-580.5-61.4c-564-11.8-575.8-16.5-693.8-174.6c-68.4-92-68.4-313.9,0-405.9c103.8-141.6,158.1-162.8,434.2-169.9l254.9-9.5l9.4-254.9c7.1-276.1,28.3-330.4,169.9-434.2c92-68.4,313.9-68.4,405.9,0c146.3,106.2,162.8,153.4,169.9,464.9l9.4,290.3l148.7,75.5c177,92,382.3,297.3,469.6,472c224.2,441.3,153.4,941.6-181.7,1298c-205.3,214.8-436.6,323.3-764.6,356.4c-212.4,21.2-278.5,54.3-370.5,177c-68.4,92-68.4,313.9,0,405.9c118,158.1,129.8,162.8,693.8,174.6c474.4,11.8,521.6,16.5,580.6,61.4c125.1,92,162.8,167.6,162.8,316.2c0,148.7-37.7,224.2-162.8,316.2c-54.3,42.5-106.2,51.9-321,56.6l-254.9,9.4l-9.4,254.9c-7.1,276.1-28.3,330.4-165.2,431.9C5131.4,3878,4945,3894.5,4850.6,3849.7z"/><path d="M2962.7-1814.2c-158.1-68.4-247.8-250.1-214.8-427.1c21.2-110.9,139.2-240.7,245.4-271.4c59-18.9,719.8-23.6,2062.6-18.9c1951.7,7.1,1975.3,7.1,2039,56.6c125.1,92,162.9,167.6,162.9,316.2c0,148.7-37.8,224.2-162.9,316.2c-63.7,49.6-84.9,49.6-2062.5,54.3C3406.3-1783.5,3019.3-1788.2,2962.7-1814.2z"/><path d="M2962.7-2946.9c-158.1-68.4-247.8-250.1-214.8-427.1c21.2-110.9,139.2-240.7,245.4-271.4c59-18.9,719.8-23.6,2062.6-18.9c1951.7,7.1,1975.3,7.1,2039,56.6c125.1,92.1,162.9,167.6,162.9,316.2c0,148.7-37.8,224.2-162.9,316.2c-63.7,49.6-84.9,49.6-2062.5,54.3C3406.3-2916.2,3019.3-2920.9,2962.7-2946.9z"/></g></g>
</svg>