<?xml version="1.0" encoding="utf-8"?>
<!-- Svg Vector Icons : http://www.onlinewebfonts.com/icon -->
<!DOCTYPE svg PUBLIC "-//W3C//DTD SVG 1.1//EN" "http://www.w3.org/Graphics/SVG/1.1/DTD/svg11.dtd">
<svg version="1.1" xmlns="http://www.w3.org/2000/svg" xmlns:xlink="http://www.w3.org/1999/xlink" x="0px" y="0px" viewBox="0 0 1000 1000" enable-background="new 0 0 1000 1000" xml:space="preserve">
<metadata> Svg Vector Icons : http://www.onlinewebfonts.com/icon </metadata>
<g><g transform="translate(0.000000,511.000000) scale(0.100000,-0.100000)"><path d="M6712,4577.9c0-291-2.1-295.3-143.4-295.3c-383,0-834.5-100.6-1151.2-254.6c-629.1-310.3-990.7-851.6-1102-1649.8c-30-209.7-30-766,0-954.4c117.7-751.1,475-1281.7,1091.3-1619.8c282.5-154.1,727.5-278.2,1097.7-306l186.2-15v-1087v-1089.2h-995h-995v-652.6v-652.7h992.9h992.9l12.9-49.2c6.4-25.7,12.8-149.8,12.8-276.1v-231.1h385.2h385.2v273.9v273.9l226.8,27.8c622.7,72.7,1142.7,295.3,1523.5,652.6c359.5,340.2,554.2,714.7,635.5,1219.7c36.4,228.9,42.8,684.7,12.8,868.8C9744.1-424.9,9204.8,336.8,8545.8,647.1c-233.2,109.1-436.5,147.6-768.2,147.6h-295.3V1886v1091.3h813.1h813.1V3630v652.6h-813.1h-813.1v246.1v246.1h-385.2H6712V4577.9z M6690.6,1886V794.7h-113.4c-156.2,0-419.4,70.6-573.5,151.9c-149.8,81.3-333.8,269.6-402.3,413c-156.2,333.8-145.5,817.4,23.6,1108.4c164.8,278.2,590.6,500.7,975.7,507.1l89.9,2.1V1886z M7841.8-502c205.4-42.8,432.2-160.5,562.8-291c188.3-188.3,276-428,276-755.4c0-633.4-378.8-1033.5-1035.7-1093.4l-162.6-15v1091.3c0,599.1,6.4,1095.6,12.8,1102C7510.1-446.3,7649.2-463.5,7841.8-502z"/><path d="M104.3-1146.1l6.4-808.8l2306.7-6.4l2304.6-4.3v813.1v813.1H2411H100L104.3-1146.1z"/></g></g>
</svg>