<?xml version="1.0" encoding="utf-8"?>
<!-- Svg Vector Icons : http://www.onlinewebfonts.com/icon -->
<!DOCTYPE svg PUBLIC "-//W3C//DTD SVG 1.1//EN" "http://www.w3.org/Graphics/SVG/1.1/DTD/svg11.dtd">
<svg version="1.1" xmlns="http://www.w3.org/2000/svg" xmlns:xlink="http://www.w3.org/1999/xlink" x="0px" y="0px" viewBox="0 0 1000 1000" enable-background="new 0 0 1000 1000" xml:space="preserve">
<metadata> Svg Vector Icons : http://www.onlinewebfonts.com/icon </metadata>
<g><path d="M799.1,783.3H404.9c0-12.3,0-26.1,0-36h382.6c90.5,0,164.1-74.4,164.1-165.6V561H990v29.1C990,696.7,904.9,783.3,799.1,783.3z M963.9,507.3h-60.6l0,0h-273c-48.3,0-88.2-39.9-88.2-89c0-49.1,39.1-89,88.2-89h272.2l0,0h60.6l0,0h26.1v177.1L963.9,507.3L963.9,507.3z M636.5,367.7c-27.6,0-49.8,22.2-49.8,49.8s22.2,49.8,49.8,49.8c27.6,0,49.8-22.2,49.8-49.8C685.6,390,663.3,367.7,636.5,367.7z M951.7,254.2c0-91.3-73.6-165.6-164.1-165.6H329.8c-90.5,0-164.1,74.4-164.1,165.6v327.4c0,20.7,3.8,39.9,10.7,58.3c-14.6,0-29.1,0.8-42.2,2.3c-4.6-16.9-6.9-33.7-6.9-52.1V245.8c0-106.6,85.1-193.2,190.9-193.2h480.8c105.8,0,190.9,86.7,190.9,193.2v29.1h-38.3V254.2z M630.4,561h299.8v20.7c0,79.8-63.6,144.2-142.6,144.2H390.3c10-6.9,15.3-15.3,15.3-23c0-33.7-91.3-61.3-206.3-62.9c-7.7-17.6-12.3-37.6-12.3-58.3V254.2c0-79.7,63.6-144.2,142.6-144.2h457.8c79,0,142.6,64.4,142.6,144.2v20.7H630.4c-77.4,0-141.1,64.4-141.1,142.6C489.3,496.5,552.9,561,630.4,561z M364.3,724.3c0,8.4-6.9,16.1-18.4,23H398l-1.5,2.3l-15.3,11.5l-12.3,6.1l-4.6,1.5c0,17.6,0.8,42.9,0.8,42.9c0,28.4-79,52.1-177.1,52.1c-97.4,0-177.1-23-177.1-52.1c0-0.8,0-60.6,0-60.6s0.8,3.1,1.5,3.8c0.8,2.3,3.8,6.9,3.8,6.9L23,768l12.3,7.7l17.6,6.9l24.5,6.9l26.1,5.4l39.1,4.6l39.9,1.5l37.6-0.8l35.3-3.1l34.5-5.4l26.1-6.9l10.7-3.8l-10.7,3.1c-20.7,0-41.4-3.8-59.8-10.7c-21.5,2.3-44.5,3.8-69,3.8c-97.4,0-177.1-23-177.1-52.1c0-28.4,79-52.1,177.1-52.1C285.3,672.2,364.3,695.9,364.3,724.3z M12.3,839.3c0.8,1.5,3.8,6.1,3.8,6.1l6.9,6.1l12.3,7.7l17.6,6.9l24.5,6.9l26.1,5.4l39.1,4.6l39.9,1.5l37.6-0.8l35.3-3.1l34.5-5.4l26.1-6.9l18.4-6.9l10.7-5.4l12.3-9.2l6.1-10.7l0.8,59c0,28.4-79,52.1-177.1,52.1c-97.4,0-177.1-23-177.1-52.1c0-0.8,0-60.6,0-60.6S11.5,838.6,12.3,839.3z"/></g>
</svg>